<svg xmlns="http://www.w3.org/2000/svg" xmlns:xlink="http://www.w3.org/1999/xlink" width="19" height="19" viewBox="0 0 19 19"><defs><style>.a,.c{fill:#fff;}.a{stroke:#707070;}.b{clip-path:url(#a);}</style><clipPath id="a"><rect class="a" width="19" height="19" transform="translate(586 73)"/></clipPath></defs><g class="b" transform="translate(-586 -73)"><path class="c" d="M118.782,577.157a1.47,1.47,0,0,1-.053-.193.634.634,0,0,0-.053-.158,1,1,0,0,0-.087-.14,1.412,1.412,0,0,0-.123-.14,1.132,1.132,0,0,0-.105-.088.992.992,0,0,0-.14-.087,1.09,1.09,0,0,1-.175-.018,1.165,1.165,0,0,0-.175-.017,1.331,1.331,0,0,0-.211.017.63.63,0,0,0-.175.052l-.14.07a.562.562,0,0,0-.14.1.927.927,0,0,1-.088.14.938.938,0,0,0-.087.14,1.437,1.437,0,0,1-.07.175.385.385,0,0,0-.035.175.585.585,0,0,0-.053.175,1.048,1.048,0,0,0-.018.175v.736a.945.945,0,0,0,.018.193,1.4,1.4,0,0,0,.053.193.649.649,0,0,1,.053.158.589.589,0,0,0,.053.158.576.576,0,0,1,.105.14.533.533,0,0,0,.105.14.487.487,0,0,1,.123.088.393.393,0,0,0,.158.088.585.585,0,0,0,.158.053,1.065,1.065,0,0,0,.385,0,.593.593,0,0,0,.158-.053.908.908,0,0,0,.14-.088,1.335,1.335,0,0,0,.14-.122.663.663,0,0,0,.088-.123c.035-.058.064-.111.087-.158s.046-.1.07-.158.046-.122.07-.193a.776.776,0,0,1,.018-.158,1.026,1.026,0,0,0,.017-.193v-.736a1.169,1.169,0,0,0-.017-.175A.653.653,0,0,0,118.782,577.157Zm-.333,1a1.591,1.591,0,0,0-.017.228c-.024.094-.041.169-.053.228a.636.636,0,0,1-.053.158.483.483,0,0,1-.088.123.47.47,0,0,0-.087.122.638.638,0,0,1-.14.052.566.566,0,0,1-.28,0,.211.211,0,0,1-.105-.052.141.141,0,0,1-.105-.035.4.4,0,0,1-.07-.105.534.534,0,0,1-.07-.088.212.212,0,0,1-.035-.122l-.105-.526v-.491l.105-.526a1.138,1.138,0,0,1,.07-.123.17.17,0,0,0,.035-.087.6.6,0,0,1,.088-.07.547.547,0,0,0,.087-.07.143.143,0,0,1,.105-.035h.263a.12.12,0,0,1,.087.035.444.444,0,0,1,.105.07l.07.07a1.02,1.02,0,0,0,.07.123.219.219,0,0,1,.035.123l.07.245.035.491A1.877,1.877,0,0,1,118.449,578.155Zm5.73-3.382a8.6,8.6,0,0,0-8.095-5.362,8.709,8.709,0,0,0-3.329.631,8.5,8.5,0,0,0-2.8,1.893,8.388,8.388,0,0,0-2.558,6.168,8.643,8.643,0,0,0,5.362,8.095,8.7,8.7,0,0,0,3.329.631,8.6,8.6,0,0,0,8.726-8.726A8.705,8.705,0,0,0,124.179,574.774Zm-.771,4.276a5.541,5.541,0,0,1-1.647.876l-.09.03a13.272,13.272,0,0,0,.125-1.817,13.588,13.588,0,0,0-.121-1.816l.085.028a5.1,5.1,0,0,1,1.647.841,1.849,1.849,0,0,1,.326.367c.012.18.025.36.025.544,0,.2-.013.394-.026.587A1.939,1.939,0,0,1,123.408,579.049Zm-5.432,6.343a3.725,3.725,0,0,1-.506.268,8.332,8.332,0,0,1-1.387.118,8.073,8.073,0,0,1-1.387-.121,3.552,3.552,0,0,1-.488-.264,5.684,5.684,0,0,1-1.595-1.682,8.454,8.454,0,0,1-1.139-2.541c-.017-.063-.028-.13-.044-.194q.7.18,1.463.3a20.836,20.836,0,0,0,3.189.228,21.091,21.091,0,0,0,3.224-.228q.756-.116,1.447-.295c-.016.062-.028.128-.045.189a9.41,9.41,0,0,1-1.121,2.541A5.581,5.581,0,0,1,117.976,585.392Zm1.209-4.836a21.245,21.245,0,0,1-3.1.21,20.985,20.985,0,0,1-3.067-.21,14.232,14.232,0,0,1-1.745-.369,12.883,12.883,0,0,1,0-4.1,15.246,15.246,0,0,1,1.746-.385,19.453,19.453,0,0,1,3.067-.227,19.693,19.693,0,0,1,3.1.227,15.228,15.228,0,0,1,1.738.383,12.311,12.311,0,0,1,0,4.1A14.253,14.253,0,0,1,119.185,580.556ZM108.47,578.69c-.013-.194-.026-.387-.026-.587,0-.185.013-.364.024-.544a1.844,1.844,0,0,1,.326-.367,5.084,5.084,0,0,1,1.647-.841l.054-.018a13.1,13.1,0,0,0-.124,1.805,12.7,12.7,0,0,0,.129,1.806l-.059-.019a5.526,5.526,0,0,1-1.647-.876A1.929,1.929,0,0,1,108.47,578.69Zm5.739-7.842a3.545,3.545,0,0,1,.488-.264,8.079,8.079,0,0,1,1.387-.121,8.342,8.342,0,0,1,1.387.118,3.731,3.731,0,0,1,.506.267,5.6,5.6,0,0,1,1.612,1.682,9.362,9.362,0,0,1,1.121,2.558c.019.068.032.14.049.209q-.694-.178-1.451-.3a21.185,21.185,0,0,0-3.224-.228,20.929,20.929,0,0,0-3.189.228c-.512.079-1,.18-1.467.3.017-.07.029-.144.048-.213a8.423,8.423,0,0,1,1.139-2.558A5.7,5.7,0,0,1,114.209,570.849Zm8.989,4.328a7.165,7.165,0,0,1,.388,1.274,6.666,6.666,0,0,0-1.579-.766c-.151-.056-.308-.107-.465-.158-.045-.219-.092-.436-.148-.648a9.363,9.363,0,0,0-1.209-2.733,7.955,7.955,0,0,0-.721-.922,7.769,7.769,0,0,1,2.053,1.482A7.638,7.638,0,0,1,123.2,575.177Zm-12.511-2.471a7.761,7.761,0,0,1,2.019-1.467,7.257,7.257,0,0,0-.688.906,9.675,9.675,0,0,0-1.226,2.733c-.06.215-.11.435-.157.657-.147.049-.3.1-.438.149a6.675,6.675,0,0,0-1.58.765,7.13,7.13,0,0,1,.388-1.273A7.616,7.616,0,0,1,110.687,572.706ZM109,581.064a7.074,7.074,0,0,1-.383-1.258,7.429,7.429,0,0,0,1.574.784c.145.054.3.1.447.152.045.208.092.416.148.619a9.661,9.661,0,0,0,1.226,2.733,7.28,7.28,0,0,0,.64.883,7.776,7.776,0,0,1-1.972-1.444A7.606,7.606,0,0,1,109,581.064Zm12.511,2.471a7.762,7.762,0,0,1-2.006,1.46,7.955,7.955,0,0,0,.674-.9,9.35,9.35,0,0,0,1.209-2.733c.054-.2.1-.4.14-.61.16-.052.319-.1.473-.161a7.465,7.465,0,0,0,1.574-.784,7.15,7.15,0,0,1-.382,1.258A7.628,7.628,0,0,1,121.516,583.535Zm-1.069-6.693a.463.463,0,0,1-.018-.105,1.272,1.272,0,0,0-.07-.123.642.642,0,0,0-.07-.087.274.274,0,0,0-.088-.105,1.244,1.244,0,0,0-.123-.07.471.471,0,0,1-.105-.018.6.6,0,0,0-.14-.017.6.6,0,0,0-.14.017.48.48,0,0,1-.105.018,1.244,1.244,0,0,0-.123.07.267.267,0,0,0-.087.105.554.554,0,0,0-.07.087,1.145,1.145,0,0,0-.07.123.5.5,0,0,1-.017.105.571.571,0,0,0-.018.14.56.56,0,0,0,.018.14.517.517,0,0,1,.017.105,1.051,1.051,0,0,0,.07.123.547.547,0,0,0,.07.088.263.263,0,0,0,.087.105,1.057,1.057,0,0,0,.123.07.4.4,0,0,1,.123.018.382.382,0,0,0,.123.018.571.571,0,0,0,.14-.018.5.5,0,0,1,.105-.018,1.057,1.057,0,0,0,.123-.07.269.269,0,0,0,.088-.105.633.633,0,0,0,.07-.088,1.158,1.158,0,0,0,.07-.123.478.478,0,0,1,.018-.105.6.6,0,0,0,.017-.14A.607.607,0,0,0,120.447,576.841Zm-.3.21a.1.1,0,0,1-.035.07l-.07.07-.105.07-.105.035-.14-.035-.07-.07-.07-.07a.167.167,0,0,0-.018-.07.15.15,0,0,1-.018-.07l.035-.105.07-.105.07-.07.14-.035.105.035.105.07.07.105.035.105Zm-3.679.981a.623.623,0,0,0-.088-.175,1.408,1.408,0,0,0-.123-.14.316.316,0,0,0-.122-.122c-.059-.035-.112-.064-.158-.088a.563.563,0,0,0-.193-.087,1.026,1.026,0,0,0-.193-.018.761.761,0,0,0-.175.018.7.7,0,0,0-.14.052.623.623,0,0,0-.175.088.351.351,0,0,0-.105.123,1.258,1.258,0,0,1,.018-.21,1.281,1.281,0,0,1,.053-.21.31.31,0,0,1,.035-.14l.07-.14a.907.907,0,0,0,.105-.123.555.555,0,0,1,.07-.088.384.384,0,0,0,.123-.017.39.39,0,0,1,.122-.018.745.745,0,0,1,.175.018.228.228,0,0,1,.105.053.273.273,0,0,1,.105.088.709.709,0,0,1,.07.158h.421q-.036-.1-.053-.175a.725.725,0,0,0-.053-.14.491.491,0,0,0-.088-.123.454.454,0,0,1-.087-.123l-.14-.07-.14-.07a.571.571,0,0,1-.14-.018.762.762,0,0,0-.175-.017.781.781,0,0,0-.245.035l-.211.07a.62.62,0,0,0-.175.175l-.14.21a1.216,1.216,0,0,0-.123.245,2.045,2.045,0,0,0-.087.316,3.4,3.4,0,0,0-.053.35,3.849,3.849,0,0,0-.018.386,2.217,2.217,0,0,0,.018.28,1.207,1.207,0,0,0,.053.245,1.685,1.685,0,0,0,.087.263.6.6,0,0,0,.123.193.362.362,0,0,0,.123.175,2.019,2.019,0,0,1,.158.14l.21.07a.765.765,0,0,0,.245.035.982.982,0,0,0,.193-.018,1.488,1.488,0,0,0,.193-.053c.046-.023.1-.053.158-.088a.814.814,0,0,0,.158-.122.476.476,0,0,0,.105-.158c.023-.058.046-.122.07-.193s.046-.14.07-.21a.671.671,0,0,0,.035-.21,1.335,1.335,0,0,0-.017-.21A1.439,1.439,0,0,0,116.469,578.033Zm-.385.42v.14a.309.309,0,0,1-.035.14l-.053.105a.272.272,0,0,1-.053.07.572.572,0,0,1-.087.07.575.575,0,0,0-.088.07.3.3,0,0,0-.087.017.436.436,0,0,1-.245,0,.814.814,0,0,1-.123-.052.1.1,0,0,1-.07-.035l-.07-.07a1.387,1.387,0,0,0-.07-.123.625.625,0,0,0-.07-.088v-.42a.308.308,0,0,1,.035-.14.611.611,0,0,0,.07-.087.561.561,0,0,1,.07-.088l.07-.07a.143.143,0,0,1,.105-.035.29.29,0,0,0,.088-.018.3.3,0,0,1,.087-.017.4.4,0,0,1,.123.017.282.282,0,0,0,.087.018.436.436,0,0,1,.105.07l.07.07a.229.229,0,0,1,.053.087.849.849,0,0,0,.053.123.144.144,0,0,1,.035.105Zm-1.945-.07a.49.49,0,0,1,.018.105,1.635,1.635,0,0,1-.018.228.331.331,0,0,1-.087.193.608.608,0,0,1-.088.175,1.308,1.308,0,0,1-.122.14,1.373,1.373,0,0,1-.14.122.6.6,0,0,1-.175.088,1.488,1.488,0,0,1-.193.053.982.982,0,0,1-.193.018.971.971,0,0,1-.193-.018.584.584,0,0,1-.158-.053,1.268,1.268,0,0,1-.175-.07.383.383,0,0,1-.105-.07l-.122-.122a.4.4,0,0,1-.088-.158c-.024-.046-.047-.1-.07-.158s-.047-.111-.07-.158h.455a.28.28,0,0,0,.018.088.208.208,0,0,0,.053.088l.053.052.053.053a.214.214,0,0,0,.088.053.282.282,0,0,0,.087.018l.175.035a.376.376,0,0,0,.123-.018.4.4,0,0,1,.123-.017.219.219,0,0,1,.087-.053.218.218,0,0,0,.088-.053.225.225,0,0,0,.053-.088.875.875,0,0,1,.053-.123.225.225,0,0,0,.053-.088.4.4,0,0,0,.017-.123.408.408,0,0,0-.017-.123.229.229,0,0,0-.053-.087c-.024-.046-.041-.081-.053-.105a.293.293,0,0,0-.053-.07.65.65,0,0,0-.088-.07.173.173,0,0,0-.087-.035.145.145,0,0,0-.105-.035h-.421v-.386h.368a.118.118,0,0,0,.087-.035.284.284,0,0,0,.087-.018.213.213,0,0,0,.088-.053.273.273,0,0,0,.053-.07.262.262,0,0,1,.053-.07.243.243,0,0,1,.018-.105.252.252,0,0,0,.017-.105.3.3,0,0,0-.017-.088.28.28,0,0,1-.018-.087c-.024-.046-.041-.081-.053-.105a.057.057,0,0,0-.053-.035.3.3,0,0,0-.07-.053l-.105-.053h-.175a.743.743,0,0,0-.175.018.684.684,0,0,0-.14.053.229.229,0,0,0-.105.105.3.3,0,0,0-.035.14h-.456c.023-.07.041-.128.053-.175a.666.666,0,0,1,.053-.14.482.482,0,0,1,.088-.123l.123-.123a1.1,1.1,0,0,0,.123-.07.7.7,0,0,1,.158-.07.312.312,0,0,1,.14-.035h.175a1.16,1.16,0,0,1,.175.017,1.094,1.094,0,0,0,.175.018c.046.024.1.047.158.07a.226.226,0,0,1,.123.105,1.5,1.5,0,0,1,.123.14,1,1,0,0,1,.087.14.64.64,0,0,1,.053.175,1.327,1.327,0,0,1,.018.21.3.3,0,0,1-.018.087.285.285,0,0,0-.018.088l-.07.175-.105.14-.105.105.14.14.07.07.07.07c.023.047.041.082.053.105s.028.059.053.105A.459.459,0,0,0,114.139,578.383Z" transform="translate(479.399 -495.62)"/></g></svg>