<svg xmlns="http://www.w3.org/2000/svg" xmlns:xlink="http://www.w3.org/1999/xlink" width="19" height="19" viewBox="0 0 19 19"><defs><style>.a{fill:#fff;}.b{clip-path:url(#a);}</style><clipPath id="a"><rect class="a" width="19" height="19"/></clipPath></defs><g class="b"><path class="a" d="M193.544,274.571a.807.807,0,0,1-.016.148l-.668,2.895a.7.7,0,0,1-.651.518h0a12.913,12.913,0,0,1-12.914-12.914h0a.7.7,0,0,1,.518-.651l2.895-.668a.814.814,0,0,1,.149-.017.729.729,0,0,1,.616.4l1.336,3.117a.788.788,0,0,1,.054.263.755.755,0,0,1-.246.517l-1.687,1.38a11.984,11.984,0,0,0,4.932,4.932l1.38-1.687a.757.757,0,0,1,.517-.246.8.8,0,0,1,.262.053l3.117,1.336A.733.733,0,0,1,193.544,274.571Z" transform="translate(-176.92 -261.505)"/></g></svg>