<svg xmlns="http://www.w3.org/2000/svg" xmlns:xlink="http://www.w3.org/1999/xlink" width="23" height="23" viewBox="0 0 23 23"><defs><style>.a{fill:#1c69d4;}.b{clip-path:url(#a);}</style><clipPath id="a"><rect class="a" width="23" height="23"/></clipPath></defs><g class="b"><path class="a" d="M251.014,352.543l-1.5.312,2.029,1.53v6.93a1.066,1.066,0,0,1-1.061,1.062h-1.592a1.066,1.066,0,0,1-1.062-1.062v-.53H236.093v.53a1.066,1.066,0,0,1-1.062,1.062h-1.592a1.066,1.066,0,0,1-1.061-1.062v-6.93l2.029-1.53-1.5-.312a.739.739,0,0,1-.437-.312.964.964,0,0,1-.094-.437.663.663,0,0,1,.156-.437.575.575,0,0,1,.469-.187h2.029a13.773,13.773,0,0,1,1.857-2.388,3.5,3.5,0,0,1,2.513-.8h5.119a3.505,3.505,0,0,1,2.513.8,13.8,13.8,0,0,1,1.857,2.388h2.029a.576.576,0,0,1,.469.187.663.663,0,0,1,.156.437.964.964,0,0,1-.094.437A.741.741,0,0,1,251.014,352.543Zm-13.86,5.026v-.531a1.6,1.6,0,0,0-1.592-1.592h-2.653v.531a1.394,1.394,0,0,0,.593,1.124,2.027,2.027,0,0,0,1.28.468Zm-1.061-5.307H247.83a11.46,11.46,0,0,0-1.108-2.232,2.11,2.11,0,0,0-1.889-.983H239.09a2.108,2.108,0,0,0-1.889.983A11.459,11.459,0,0,0,236.093,352.263Zm5.868,3.715q0-.218-.3-.374a1.139,1.139,0,0,0-.515-.156h-2.435a1.011,1.011,0,0,0-.5.14.431.431,0,0,0-.249.39,1.376,1.376,0,0,0,.546,1.2,1.816,1.816,0,0,0,1.046.39h1.592a1.14,1.14,0,0,0,.515-.156c.2-.1.3-.228.3-.375Zm2.4,1.592a1.816,1.816,0,0,0,1.046-.39,1.376,1.376,0,0,0,.546-1.2.432.432,0,0,0-.25-.39,1.012,1.012,0,0,0-.5-.14h-2.435a1.137,1.137,0,0,0-.515.156q-.3.156-.3.374v1.061c0,.146.1.271.3.375a1.139,1.139,0,0,0,.515.156Zm4-2.123a1.6,1.6,0,0,0-1.592,1.592v.531h2.372a1.154,1.154,0,0,0,1.014-.468,1.911,1.911,0,0,0,.328-1.124v-.531Z" transform="translate(-230.462 -343.674)"/></g></svg>