<svg xmlns="http://www.w3.org/2000/svg" xmlns:xlink="http://www.w3.org/1999/xlink" width="19" height="19" viewBox="0 0 19 19"><defs><style>.a{fill:#fff;}.b{clip-path:url(#a);}</style><clipPath id="a"><rect class="a" width="19" height="19"/></clipPath></defs><g class="b"><path class="a" d="M4.917-12.443a7.786,7.786,0,0,1,1.662,2.434,7.08,7.08,0,0,1,.588,2.837A7.13,7.13,0,0,1,6.143-3.444,7.634,7.634,0,0,1,3.389-.725,7.309,7.309,0,0,1-.354.282h0A7.256,7.256,0,0,1-3.913-.624L-7.875.417-6.8-3.444A7.22,7.22,0,0,1-7.808-7.171,7.22,7.22,0,0,1-6.8-10.9a7.542,7.542,0,0,1,2.72-2.72A7.22,7.22,0,0,1-.354-14.625a7.259,7.259,0,0,1,2.837.571A7.824,7.824,0,0,1,4.917-12.443ZM-.354-.96A6.106,6.106,0,0,0,2.768-1.8a6.377,6.377,0,0,0,2.3-2.266,5.927,5.927,0,0,0,.856-3.106,5.766,5.766,0,0,0-.5-2.35,6.641,6.641,0,0,0-1.393-2.031,6.221,6.221,0,0,0-2.015-1.36,6.078,6.078,0,0,0-2.367-.47,6.017,6.017,0,0,0-3.106.839,6.285,6.285,0,0,0-2.266,2.266,6.017,6.017,0,0,0-.839,3.106,5.956,5.956,0,0,0,.974,3.29l.134.235L-6.1-1.363l2.35-.6.235.134A5.987,5.987,0,0,0-.354-.96ZM3.037-5.627l.1.067a.6.6,0,0,1,.269.168.863.863,0,0,1,.017.336,1.739,1.739,0,0,1-.134.554,1.4,1.4,0,0,1-.537.571,1.7,1.7,0,0,1-.722.319,3.075,3.075,0,0,1-.907,0A6.973,6.973,0,0,1-.22-4.082,7.6,7.6,0,0,1-3.342-6.836L-3.41-6.9a3.392,3.392,0,0,1-.739-1.914,2.123,2.123,0,0,1,.6-1.511l.034-.034a.706.706,0,0,1,.5-.235h.4a.42.42,0,0,1,.218.05.461.461,0,0,1,.151.252l.571,1.377a.37.37,0,0,1,.034.336,2.312,2.312,0,0,1-.436.6.752.752,0,0,0-.168.218q-.034.084.067.185A4.343,4.343,0,0,0-1.059-6.2a8.6,8.6,0,0,0,1.41.839q.269.134.4-.034.436-.5.6-.739.067-.134.168-.134a.987.987,0,0,1,.235.034Q2.03-6.13,3.037-5.627Z" transform="translate(9.854 16.604)"/></g></svg>